<mxfile host="app.diagrams.net" modified="2023-05-19T10:17:14.590Z" agent="Mozilla/5.0 (Windows NT 10.0; Win64; x64) AppleWebKit/537.36 (KHTML, like Gecko) Chrome/113.0.0.0 Safari/537.36 Edg/113.0.1774.42" etag="DXNz2TEazhrqYABIYaRK" version="21.3.2" type="github">
  <diagram name="Σελίδα-1" id="RnyMKa6uYo8wfqKTMDjT">
    <mxGraphModel dx="1286" dy="605" grid="1" gridSize="10" guides="1" tooltips="1" connect="1" arrows="1" fold="1" page="1" pageScale="1" pageWidth="3300" pageHeight="4681" math="0" shadow="0">
      <root>
        <mxCell id="0" />
        <mxCell id="1" parent="0" />
        <mxCell id="7ovYymC-5ZYo1Sts3X1_-1" value="" style="endArrow=none;html=1;rounded=0;" edge="1" parent="1">
          <mxGeometry width="50" height="50" relative="1" as="geometry">
            <mxPoint x="240" y="700" as="sourcePoint" />
            <mxPoint x="240" y="720" as="targetPoint" />
            <Array as="points">
              <mxPoint x="240" y="160" />
              <mxPoint x="1110" y="160" />
              <mxPoint x="1110" y="730" />
            </Array>
          </mxGeometry>
        </mxCell>
        <UserObject label="Ορισμός προγραμματιστών&amp;nbsp;" treeRoot="1" id="7ovYymC-5ZYo1Sts3X1_-20">
          <mxCell style="whiteSpace=wrap;html=1;align=center;treeFolding=1;treeMoving=1;newEdgeStyle={&quot;edgeStyle&quot;:&quot;elbowEdgeStyle&quot;,&quot;startArrow&quot;:&quot;none&quot;,&quot;endArrow&quot;:&quot;none&quot;};" vertex="1" parent="1">
            <mxGeometry x="770" y="380" width="180" height="60" as="geometry" />
          </mxCell>
        </UserObject>
        <UserObject label="όρισε τις ηλεκτρονικές υπηρεσίες&amp;nbsp;" treeRoot="1" id="7ovYymC-5ZYo1Sts3X1_-21">
          <mxCell style="whiteSpace=wrap;html=1;align=center;treeFolding=1;treeMoving=1;newEdgeStyle={&quot;edgeStyle&quot;:&quot;elbowEdgeStyle&quot;,&quot;startArrow&quot;:&quot;none&quot;,&quot;endArrow&quot;:&quot;none&quot;};" vertex="1" parent="1">
            <mxGeometry x="340" y="210" width="200" height="60" as="geometry" />
          </mxCell>
        </UserObject>
        <UserObject label="όρισε σε τι υπηρεσίες θα έχει πρόσβαση ο κάθε εργαζόμενος&amp;nbsp;" treeRoot="1" id="7ovYymC-5ZYo1Sts3X1_-22">
          <mxCell style="whiteSpace=wrap;html=1;align=center;treeFolding=1;treeMoving=1;newEdgeStyle={&quot;edgeStyle&quot;:&quot;elbowEdgeStyle&quot;,&quot;startArrow&quot;:&quot;none&quot;,&quot;endArrow&quot;:&quot;none&quot;};" vertex="1" parent="1">
            <mxGeometry x="750" y="210" width="200" height="60" as="geometry" />
          </mxCell>
        </UserObject>
        <UserObject label="Ενημέρωσε τους εργαζόμενους" treeRoot="1" id="7ovYymC-5ZYo1Sts3X1_-23">
          <mxCell style="whiteSpace=wrap;html=1;align=center;treeFolding=1;treeMoving=1;newEdgeStyle={&quot;edgeStyle&quot;:&quot;elbowEdgeStyle&quot;,&quot;startArrow&quot;:&quot;none&quot;,&quot;endArrow&quot;:&quot;none&quot;};" vertex="1" parent="1">
            <mxGeometry x="330" y="370" width="200" height="60" as="geometry" />
          </mxCell>
        </UserObject>
        <UserObject label="Προγραμματισμός και feeback&amp;nbsp;" treeRoot="1" id="7ovYymC-5ZYo1Sts3X1_-24">
          <mxCell style="whiteSpace=wrap;html=1;align=center;treeFolding=1;treeMoving=1;newEdgeStyle={&quot;edgeStyle&quot;:&quot;elbowEdgeStyle&quot;,&quot;startArrow&quot;:&quot;none&quot;,&quot;endArrow&quot;:&quot;none&quot;};" vertex="1" parent="1">
            <mxGeometry x="550" y="490" width="190" height="60" as="geometry" />
          </mxCell>
        </UserObject>
        <UserObject label="Τελικός προγραμματισμός" treeRoot="1" id="7ovYymC-5ZYo1Sts3X1_-26">
          <mxCell style="whiteSpace=wrap;html=1;align=center;treeFolding=1;treeMoving=1;newEdgeStyle={&quot;edgeStyle&quot;:&quot;elbowEdgeStyle&quot;,&quot;startArrow&quot;:&quot;none&quot;,&quot;endArrow&quot;:&quot;none&quot;};" vertex="1" parent="1">
            <mxGeometry x="550" y="610" width="190" height="60" as="geometry" />
          </mxCell>
        </UserObject>
        <mxCell id="7ovYymC-5ZYo1Sts3X1_-28" value="" style="endArrow=classic;html=1;rounded=0;entryX=0;entryY=0.5;entryDx=0;entryDy=0;exitX=1;exitY=0.5;exitDx=0;exitDy=0;" edge="1" parent="1" source="7ovYymC-5ZYo1Sts3X1_-21" target="7ovYymC-5ZYo1Sts3X1_-22">
          <mxGeometry width="50" height="50" relative="1" as="geometry">
            <mxPoint x="610" y="260" as="sourcePoint" />
            <mxPoint x="660" y="210" as="targetPoint" />
          </mxGeometry>
        </mxCell>
        <mxCell id="7ovYymC-5ZYo1Sts3X1_-29" value="" style="endArrow=classic;html=1;rounded=0;exitX=0.466;exitY=1.006;exitDx=0;exitDy=0;exitPerimeter=0;entryX=0.5;entryY=0;entryDx=0;entryDy=0;" edge="1" parent="1" source="7ovYymC-5ZYo1Sts3X1_-21" target="7ovYymC-5ZYo1Sts3X1_-23">
          <mxGeometry width="50" height="50" relative="1" as="geometry">
            <mxPoint x="470" y="340" as="sourcePoint" />
            <mxPoint x="520" y="290" as="targetPoint" />
          </mxGeometry>
        </mxCell>
      </root>
    </mxGraphModel>
  </diagram>
</mxfile>
